<svg width="218" height="47" viewBox="0 0 218 47" fill="none" xmlns="http://www.w3.org/2000/svg">
<path d="M65.6623 9.79297H87.9337C87.6994 10.2617 87.5177 10.7656 87.3888 11.3047C87.2716 11.832 87.1837 12.3242 87.1252 12.7812C87.0666 13.2383 87.0314 13.625 87.0197 13.9414C87.008 14.2578 87.0021 14.4395 87.0021 14.4863L86.3869 14.5918C86.2228 13.8066 85.924 13.168 85.4904 12.6758C85.0568 12.1836 84.547 11.8027 83.9611 11.5332C83.3752 11.252 82.7482 11.0645 82.0802 10.9707C81.4123 10.8652 80.7619 10.8125 80.1291 10.8125H74.3283V23.627H85.6662C85.4201 24.1191 85.2326 24.6348 85.1037 25.1738C84.9748 25.7129 84.881 26.2168 84.8224 26.6855C84.7521 27.2363 84.7111 27.7754 84.6994 28.3027L84.1193 28.4082C83.9904 27.7754 83.838 27.248 83.6623 26.8262C83.4865 26.3926 83.2462 26.0352 82.9416 25.7539C82.6486 25.4727 82.2736 25.2559 81.8166 25.1035C81.3712 24.9512 80.8087 24.8398 80.1291 24.7695C79.4494 24.6992 78.6349 24.6582 77.6857 24.6465C76.7365 24.6348 75.6173 24.6289 74.3283 24.6289V36.9863C74.3283 37.2441 74.2287 37.5312 74.0294 37.8477C73.8302 38.1758 73.5724 38.5332 73.256 38.9199C72.9396 39.3066 72.5763 39.7168 72.1662 40.1504C71.7677 40.5957 71.3634 41.0586 70.9533 41.5391C70.5431 42.0312 70.1447 42.541 69.758 43.0684C69.3712 43.6074 69.0373 44.1582 68.756 44.7207V12.7461C68.756 12.5117 68.7091 12.2598 68.6154 11.9902C68.5334 11.7207 68.3752 11.4746 68.1408 11.252C67.9181 11.0176 67.6076 10.8242 67.2091 10.6719C66.8107 10.5195 66.2951 10.4434 65.6623 10.4434V9.79297ZM100.15 35H90.2709V34.3496C90.7631 34.3496 91.1616 34.3027 91.4662 34.209C91.7827 34.1035 92.0287 33.9688 92.2045 33.8047C92.3803 33.6289 92.4975 33.4355 92.5561 33.2246C92.6264 33.002 92.6616 32.7676 92.6616 32.5215V18.6172C92.6616 18.4414 92.6323 18.248 92.5737 18.0371C92.5151 17.8145 92.3979 17.6152 92.2221 17.4395C92.058 17.252 91.8178 17.0996 91.5014 16.9824C91.1967 16.8535 90.7866 16.7891 90.2709 16.7891V16.1035H100.15V16.7891C99.6811 16.7891 99.2885 16.8359 98.9721 16.9297C98.6674 17.0234 98.4213 17.1465 98.2338 17.2988C98.058 17.4512 97.935 17.6328 97.8647 17.8438C97.7944 18.043 97.7592 18.2539 97.7592 18.4766V32.5215C97.7592 32.6973 97.7885 32.8906 97.8471 33.1016C97.9057 33.3125 98.017 33.5117 98.1811 33.6992C98.3569 33.875 98.5971 34.0273 98.9018 34.1562C99.2182 34.2852 99.6342 34.3496 100.15 34.3496V35ZM92.5034 11.4277C92.5034 11.0527 92.5737 10.7012 92.7143 10.373C92.8666 10.0332 93.0659 9.74023 93.3119 9.49414C93.558 9.24805 93.8452 9.05469 94.1733 8.91406C94.5131 8.76172 94.8705 8.68555 95.2455 8.68555C95.6205 8.68555 95.9721 8.76172 96.3002 8.91406C96.6401 9.05469 96.933 9.24805 97.1791 9.49414C97.4252 9.74023 97.6186 10.0332 97.7592 10.373C97.9116 10.7012 97.9877 11.0527 97.9877 11.4277C97.9877 11.8027 97.9116 12.1602 97.7592 12.5C97.6186 12.8281 97.4252 13.1152 97.1791 13.3613C96.933 13.6074 96.6401 13.8008 96.3002 13.9414C95.9721 14.082 95.6205 14.1523 95.2455 14.1523C94.8705 14.1523 94.5131 14.082 94.1733 13.9414C93.8452 13.8008 93.558 13.6074 93.3119 13.3613C93.0659 13.1152 92.8666 12.8281 92.7143 12.5C92.5737 12.1602 92.5034 11.8027 92.5034 11.4277ZM102.803 17.2109C103.132 16.5664 103.337 15.9277 103.419 15.2949C103.512 14.6504 103.559 14.0879 103.559 13.6074C103.559 13.4785 103.553 13.3672 103.542 13.2734C103.542 13.168 103.542 13.0801 103.542 13.0098C103.53 12.9277 103.524 12.8516 103.524 12.7812L104.175 12.6758C104.21 13.2031 104.35 13.6543 104.596 14.0293C104.854 14.4043 105.165 14.7207 105.528 14.9785C105.903 15.2246 106.313 15.4238 106.759 15.5762C107.204 15.7285 107.643 15.8457 108.077 15.9277C108.51 15.998 108.909 16.0449 109.272 16.0684C109.647 16.0918 109.952 16.1035 110.186 16.1035H123.932C123.616 16.7598 123.411 17.4043 123.317 18.0371C123.223 18.6699 123.176 19.2266 123.176 19.707C123.176 19.8359 123.176 19.9531 123.176 20.0586C123.176 20.1523 123.182 20.2344 123.194 20.3047C123.194 20.3867 123.2 20.4629 123.212 20.5332L122.579 20.6387C122.532 20.1113 122.38 19.6602 122.122 19.2852C121.876 18.9102 121.565 18.5996 121.19 18.3535C120.827 18.0957 120.423 17.8906 119.977 17.7383C119.532 17.5859 119.092 17.4746 118.659 17.4043C118.237 17.3223 117.839 17.2695 117.464 17.2461C117.089 17.2227 116.79 17.2109 116.567 17.2109H116.233C115.12 17.2695 114.124 17.5449 113.245 18.0371C112.378 18.5176 111.639 19.1562 111.03 19.9531C110.432 20.7383 109.969 21.6406 109.641 22.6602C109.325 23.6797 109.161 24.7461 109.149 25.8594C109.149 26.9727 109.243 28.0449 109.43 29.0762C109.618 30.0957 109.917 30.998 110.327 31.7832C110.737 32.5684 111.276 33.1953 111.944 33.6641C112.612 34.1211 113.421 34.3496 114.37 34.3496C115.061 34.3496 115.659 34.2383 116.163 34.0156C116.667 33.793 117.1 33.4883 117.464 33.1016C117.827 32.7031 118.137 32.2402 118.395 31.7129C118.653 31.1855 118.882 30.6113 119.081 29.9902L123.212 31.3965C122.79 31.9941 122.303 32.5449 121.753 33.0488C121.214 33.5527 120.587 33.9922 119.872 34.3672C119.169 34.7305 118.372 35.0176 117.481 35.2285C116.591 35.4395 115.589 35.5449 114.475 35.5449C113.292 35.5449 112.208 35.416 111.223 35.1582C110.251 34.9004 109.372 34.543 108.587 34.0859C107.813 33.6289 107.134 33.0957 106.548 32.4863C105.973 31.8652 105.493 31.1973 105.106 30.4824C104.719 29.7676 104.432 29.0234 104.245 28.25C104.057 27.4766 103.964 26.7031 103.964 25.9297C103.964 24.9453 104.11 24.0137 104.403 23.1348C104.696 22.2441 105.118 21.4297 105.669 20.6914C106.231 19.9414 106.923 19.2734 107.743 18.6875C108.563 18.1016 109.501 17.6094 110.555 17.2109H102.803ZM136.254 35H126.375V34.3496C126.867 34.3496 127.266 34.3027 127.57 34.209C127.887 34.1035 128.133 33.9688 128.309 33.8047C128.484 33.6289 128.602 33.4355 128.66 33.2246C128.73 33.002 128.766 32.7676 128.766 32.5215V18.5117C128.766 18.3359 128.73 18.1484 128.66 17.9492C128.602 17.7383 128.484 17.5508 128.309 17.3867C128.133 17.2109 127.887 17.0703 127.57 16.9648C127.266 16.8477 126.867 16.7891 126.375 16.7891V16.1035H136.254V16.7891C135.785 16.7891 135.393 16.8359 135.076 16.9297C134.771 17.0234 134.525 17.1465 134.338 17.2988C134.162 17.4512 134.039 17.6328 133.969 17.8438C133.898 18.043 133.863 18.2539 133.863 18.4766V22.9414C134.273 23.75 134.766 24.6172 135.34 25.543C135.914 26.457 136.588 27.3711 137.361 28.2852C138.135 29.1992 139.02 30.0781 140.016 30.9219C141.012 31.7656 142.131 32.5156 143.373 33.1719V18.6172C143.373 18.4414 143.344 18.248 143.285 18.0371C143.238 17.8145 143.127 17.6152 142.951 17.4395C142.787 17.252 142.547 17.0996 142.23 16.9824C141.926 16.8535 141.516 16.7891 141 16.7891V16.1035H150.861V16.7891C150.393 16.7891 150.006 16.8359 149.701 16.9297C149.396 17.0234 149.15 17.1465 148.963 17.2988C148.787 17.4512 148.664 17.6328 148.594 17.8438C148.523 18.043 148.488 18.2539 148.488 18.4766V32.627C148.488 32.8027 148.518 32.9902 148.576 33.1895C148.646 33.3887 148.77 33.5762 148.945 33.752C149.121 33.916 149.361 34.0566 149.666 34.1738C149.971 34.291 150.369 34.3496 150.861 34.3496V35H143.373C142.518 34.7891 141.645 34.4316 140.754 33.9277C139.875 33.4238 139.02 32.8555 138.187 32.2227C137.367 31.5781 136.582 30.9043 135.832 30.2012C135.094 29.498 134.437 28.8418 133.863 28.2324V32.5215C133.863 32.6973 133.893 32.8906 133.951 33.1016C134.01 33.3125 134.121 33.5117 134.285 33.6992C134.461 33.875 134.701 34.0273 135.006 34.1562C135.322 34.2852 135.738 34.3496 136.254 34.3496V35ZM159.615 24.0137C159.591 24.2715 159.579 24.5234 159.579 24.7695C159.579 25.0039 159.579 25.2441 159.579 25.4902C159.579 26.6035 159.65 27.6875 159.79 28.7422C159.931 29.7969 160.189 30.7344 160.564 31.5547C160.95 32.375 161.484 33.043 162.163 33.5586C162.843 34.0625 163.722 34.3262 164.8 34.3496C165.491 34.3496 166.107 34.2383 166.646 34.0156C167.197 33.793 167.677 33.4883 168.087 33.1016C168.497 32.7031 168.849 32.2402 169.142 31.7129C169.435 31.1855 169.681 30.6113 169.88 29.9902L174.029 31.3965C173.607 31.9941 173.103 32.5449 172.517 33.0488C171.931 33.5527 171.257 33.9922 170.495 34.3672C169.745 34.7305 168.902 35.0176 167.964 35.2285C167.038 35.4395 166.019 35.5449 164.906 35.5449C163.652 35.5449 162.515 35.4043 161.495 35.123C160.476 34.8535 159.562 34.4785 158.753 33.998C157.956 33.5176 157.259 32.9551 156.661 32.3105C156.075 31.6543 155.583 30.957 155.185 30.2188C154.798 29.4805 154.511 28.7129 154.324 27.916C154.136 27.1191 154.042 26.334 154.042 25.5605C154.042 24.8223 154.124 24.0664 154.288 23.293C154.464 22.5078 154.734 21.7402 155.097 20.9902C155.46 20.2402 155.917 19.5371 156.468 18.8809C157.031 18.2129 157.699 17.627 158.472 17.123C159.257 16.6191 160.154 16.2207 161.161 15.9277C162.169 15.6348 163.3 15.4883 164.554 15.4883C166.394 15.4883 167.958 15.7168 169.247 16.1738C170.548 16.6309 171.615 17.252 172.447 18.0371C173.29 18.8105 173.917 19.7129 174.327 20.7441C174.749 21.7754 175.007 22.8652 175.101 24.0137H159.615ZM164.659 16.7188C163.804 16.7188 163.077 16.877 162.48 17.1934C161.894 17.5098 161.407 17.9434 161.021 18.4941C160.634 19.0449 160.335 19.6953 160.124 20.4453C159.925 21.1836 159.779 21.9805 159.685 22.8359H169.599C169.529 21.9922 169.4 21.2012 169.212 20.4629C169.036 19.7246 168.761 19.0801 168.386 18.5293C168.023 17.9668 167.536 17.5273 166.927 17.2109C166.329 16.8828 165.574 16.7188 164.659 16.7188ZM183.678 35.3516C182.846 35.3516 182.167 35.3223 181.639 35.2637C181.124 35.2168 180.696 35.1582 180.356 35.0879C180.028 35.0176 179.758 34.959 179.547 34.9121C179.336 34.8535 179.12 34.8242 178.897 34.8242C178.991 34.4258 179.055 34.0625 179.09 33.7344C179.126 33.4062 179.143 33.1074 179.143 32.8379C179.143 32.4395 179.108 32.0703 179.038 31.7305C178.967 31.3789 178.885 31.0156 178.792 30.6406L179.389 30.6055C179.647 31.168 180.022 31.666 180.514 32.0996C181.018 32.5215 181.575 32.8789 182.184 33.1719C182.805 33.4648 183.45 33.6875 184.118 33.8398C184.786 33.9922 185.419 34.0684 186.016 34.0684C186.754 34.0684 187.411 33.9746 187.985 33.7871C188.559 33.5879 189.045 33.3184 189.444 32.9785C189.842 32.6387 190.141 32.2344 190.34 31.7656C190.551 31.2969 190.657 30.7812 190.657 30.2188C190.657 29.6211 190.534 29.1348 190.288 28.7598C190.053 28.373 189.725 28.0625 189.303 27.8281C188.881 27.5938 188.389 27.4238 187.827 27.3184C187.264 27.2012 186.661 27.1074 186.016 27.0371C185.524 26.9902 184.997 26.9316 184.434 26.8613C183.872 26.791 183.309 26.6855 182.747 26.5449C182.184 26.4043 181.639 26.2168 181.112 25.9824C180.596 25.748 180.139 25.4492 179.741 25.0859C179.342 24.7227 179.02 24.2832 178.774 23.7676C178.54 23.2402 178.422 22.6191 178.422 21.9043C178.422 21.0605 178.592 20.3223 178.932 19.6895C179.272 19.0566 179.717 18.5117 180.268 18.0547C180.831 17.5977 181.475 17.2227 182.202 16.9297C182.928 16.6367 183.672 16.4082 184.434 16.2441C185.208 16.0684 185.969 15.9453 186.719 15.875C187.481 15.8047 188.172 15.7695 188.794 15.7695C189.895 15.7695 190.856 15.8281 191.676 15.9453C192.508 16.0508 193.206 16.1035 193.768 16.1035C193.651 16.5137 193.569 16.9121 193.522 17.2988C193.487 17.6738 193.469 18.0078 193.469 18.3008C193.469 18.6758 193.499 19.0391 193.557 19.3906C193.627 19.7305 193.721 20.0879 193.838 20.4629L193.223 20.498C193.012 20.0059 192.807 19.5547 192.608 19.1445C192.42 18.7227 192.127 18.3652 191.729 18.0723C191.342 17.7676 190.797 17.5332 190.094 17.3691C189.391 17.1934 188.419 17.1055 187.176 17.1055C186.778 17.1055 186.362 17.1758 185.928 17.3164C185.495 17.4453 185.096 17.6504 184.733 17.9316C184.381 18.2012 184.088 18.541 183.854 18.9512C183.62 19.3613 183.502 19.8418 183.502 20.3926C183.502 21.1191 183.661 21.6934 183.977 22.1152C184.305 22.5371 184.698 22.8652 185.155 23.0996C185.612 23.3223 186.086 23.4746 186.579 23.5566C187.071 23.627 187.487 23.6738 187.827 23.6973C188.249 23.7324 188.735 23.7852 189.286 23.8555C189.848 23.9258 190.417 24.0371 190.991 24.1895C191.577 24.3301 192.151 24.5176 192.713 24.752C193.276 24.9863 193.78 25.291 194.225 25.666C194.67 26.041 195.028 26.498 195.297 27.0371C195.567 27.5645 195.702 28.1914 195.702 28.918C195.702 29.8789 195.526 30.7051 195.174 31.3965C194.823 32.0879 194.342 32.6738 193.733 33.1543C193.135 33.623 192.432 34.0039 191.624 34.2969C190.827 34.5898 189.983 34.8125 189.092 34.9648C188.202 35.1172 187.294 35.2168 186.368 35.2637C185.442 35.3223 184.545 35.3516 183.678 35.3516ZM204.367 35.3516C203.535 35.3516 202.855 35.3223 202.328 35.2637C201.812 35.2168 201.385 35.1582 201.045 35.0879C200.717 35.0176 200.447 34.959 200.236 34.9121C200.025 34.8535 199.808 34.8242 199.586 34.8242C199.68 34.4258 199.744 34.0625 199.779 33.7344C199.814 33.4062 199.832 33.1074 199.832 32.8379C199.832 32.4395 199.797 32.0703 199.726 31.7305C199.656 31.3789 199.574 31.0156 199.48 30.6406L200.078 30.6055C200.336 31.168 200.711 31.666 201.203 32.0996C201.707 32.5215 202.264 32.8789 202.873 33.1719C203.494 33.4648 204.139 33.6875 204.806 33.8398C205.474 33.9922 206.107 34.0684 206.705 34.0684C207.443 34.0684 208.099 33.9746 208.674 33.7871C209.248 33.5879 209.734 33.3184 210.133 32.9785C210.531 32.6387 210.83 32.2344 211.029 31.7656C211.24 31.2969 211.346 30.7812 211.346 30.2188C211.346 29.6211 211.223 29.1348 210.976 28.7598C210.742 28.373 210.414 28.0625 209.992 27.8281C209.57 27.5938 209.078 27.4238 208.515 27.3184C207.953 27.2012 207.349 27.1074 206.705 27.0371C206.213 26.9902 205.685 26.9316 205.123 26.8613C204.56 26.791 203.998 26.6855 203.435 26.5449C202.873 26.4043 202.328 26.2168 201.801 25.9824C201.285 25.748 200.828 25.4492 200.43 25.0859C200.031 24.7227 199.709 24.2832 199.463 23.7676C199.228 23.2402 199.111 22.6191 199.111 21.9043C199.111 21.0605 199.281 20.3223 199.621 19.6895C199.961 19.0566 200.406 18.5117 200.957 18.0547C201.519 17.5977 202.164 17.2227 202.89 16.9297C203.617 16.6367 204.361 16.4082 205.123 16.2441C205.896 16.0684 206.658 15.9453 207.408 15.875C208.17 15.8047 208.861 15.7695 209.482 15.7695C210.584 15.7695 211.545 15.8281 212.365 15.9453C213.197 16.0508 213.894 16.1035 214.457 16.1035C214.34 16.5137 214.258 16.9121 214.211 17.2988C214.176 17.6738 214.158 18.0078 214.158 18.3008C214.158 18.6758 214.187 19.0391 214.246 19.3906C214.316 19.7305 214.41 20.0879 214.527 20.4629L213.912 20.498C213.701 20.0059 213.496 19.5547 213.297 19.1445C213.109 18.7227 212.816 18.3652 212.418 18.0723C212.031 17.7676 211.486 17.5332 210.783 17.3691C210.08 17.1934 209.107 17.1055 207.865 17.1055C207.467 17.1055 207.051 17.1758 206.617 17.3164C206.183 17.4453 205.785 17.6504 205.422 17.9316C205.07 18.2012 204.777 18.541 204.543 18.9512C204.308 19.3613 204.191 19.8418 204.191 20.3926C204.191 21.1191 204.349 21.6934 204.666 22.1152C204.994 22.5371 205.387 22.8652 205.844 23.0996C206.301 23.3223 206.775 23.4746 207.267 23.5566C207.76 23.627 208.176 23.6738 208.515 23.6973C208.937 23.7324 209.424 23.7852 209.974 23.8555C210.537 23.9258 211.105 24.0371 211.68 24.1895C212.265 24.3301 212.84 24.5176 213.402 24.752C213.965 24.9863 214.469 25.291 214.914 25.666C215.359 26.041 215.717 26.498 215.986 27.0371C216.256 27.5645 216.39 28.1914 216.39 28.918C216.39 29.8789 216.215 30.7051 215.863 31.3965C215.512 32.0879 215.031 32.6738 214.422 33.1543C213.824 33.623 213.121 34.0039 212.312 34.2969C211.515 34.5898 210.672 34.8125 209.781 34.9648C208.89 35.1172 207.982 35.2168 207.056 35.2637C206.131 35.3223 205.234 35.3516 204.367 35.3516Z" fill="white"/>
<path fill-rule="evenodd" clip-rule="evenodd" d="M38.8125 33.375C47.2003 33.375 54 26.5753 54 18.1875C54 9.79967 47.2003 3 38.8125 3C32.1146 3 26.4294 7.33575 24.4104 13.3537C30.2515 15.4695 34.425 21.0661 34.425 27.6375C34.425 29.3274 34.149 30.9529 33.6396 32.4713C35.2541 33.0561 36.9961 33.375 38.8125 33.375Z" fill="#1AB9BF"/>
<circle cx="15.345" cy="29.505" r="15.345" fill="#FFE072"/>
<path d="M25.1406 24.846C24.9099 24.8359 24.6808 24.9026 24.4738 25.0402C24.2667 25.1778 24.0881 25.3819 23.9538 25.6346C23.9423 25.6566 23.926 25.6732 23.9072 25.6818C23.8883 25.6905 23.8679 25.6909 23.8489 25.6828C23.8298 25.6748 23.8132 25.6589 23.8014 25.6373C23.7896 25.6157 23.7832 25.5896 23.7831 25.5627V23.2505C23.7831 21.9414 23.0172 20.8399 22.045 20.809C21.8074 20.8009 21.5709 20.8569 21.3496 20.9737C21.1283 21.0905 20.9266 21.2658 20.7564 21.4891C20.5862 21.7125 20.451 21.9795 20.3586 22.2743C20.2663 22.5691 20.2187 22.8858 20.2188 23.2057V28.379C20.2188 28.4125 20.2089 28.4446 20.1913 28.4682C20.1737 28.4919 20.1499 28.5052 20.125 28.5052H10.375C10.3501 28.5052 10.3263 28.4919 10.3087 28.4682C10.2911 28.4446 10.2812 28.4125 10.2812 28.379V23.2505C10.2812 21.9414 9.51531 20.8399 8.54313 20.809C8.30564 20.8012 8.06941 20.8575 7.84833 20.9745C7.62725 21.0914 7.42578 21.2667 7.25579 21.4901C7.08579 21.7134 6.95071 21.9802 6.85848 22.2749C6.76625 22.5695 6.71874 22.886 6.71875 23.2057V25.564C6.7187 25.5908 6.71231 25.6169 6.70049 25.6385C6.68867 25.6601 6.67204 25.6761 6.65302 25.6841C6.634 25.6921 6.61358 25.6918 6.59471 25.6831C6.57585 25.6744 6.55953 25.6579 6.54813 25.6359C6.41368 25.3826 6.23481 25.178 6.02741 25.0401C5.82002 24.9023 5.59054 24.8357 5.35938 24.846C4.59531 24.8782 4 25.7488 4 26.7778V33.006C4 34.035 4.59719 34.9056 5.35938 34.9378C5.59014 34.9479 5.81919 34.8812 6.02623 34.7436C6.23326 34.606 6.41188 34.4019 6.54625 34.1491C6.55738 34.1259 6.57388 34.1082 6.59322 34.0988C6.61255 34.0894 6.63365 34.0888 6.65325 34.0971C6.67286 34.1054 6.68989 34.1222 6.70173 34.1448C6.71356 34.1675 6.71954 34.1947 6.71875 34.2223V36.5358C6.71875 37.8424 7.48469 38.9464 8.45687 38.978C8.6944 38.9857 8.93067 38.9294 9.15178 38.8124C9.37289 38.6954 9.57438 38.5201 9.74438 38.2967C9.91438 38.0733 10.0495 37.8064 10.1417 37.5117C10.2339 37.2169 10.2813 36.9004 10.2812 36.5806V31.4073C10.2812 31.3738 10.2911 31.3417 10.3087 31.3181C10.3263 31.2944 10.3501 31.2811 10.375 31.2811H20.125C20.1499 31.2811 20.1737 31.2944 20.1913 31.3181C20.2089 31.3417 20.2188 31.3738 20.2188 31.4073V36.5358C20.2188 37.8449 20.9847 38.9464 21.9569 38.9774C22.1944 38.9851 22.4306 38.9288 22.6517 38.8119C22.8728 38.6949 23.0742 38.5196 23.2442 38.2963C23.4142 38.0729 23.5493 37.8061 23.6415 37.5115C23.7337 37.2168 23.7813 36.9003 23.7812 36.5806V34.2223C23.7813 34.1955 23.7877 34.1694 23.7995 34.1478C23.8113 34.1262 23.828 34.1102 23.847 34.1022C23.866 34.0942 23.8864 34.0946 23.9053 34.1032C23.9241 34.1119 23.9405 34.1284 23.9519 34.1504C24.0863 34.4037 24.2652 34.6084 24.4726 34.7462C24.68 34.884 24.9095 34.9507 25.1406 34.9403C25.9047 34.9081 26.5 34.0375 26.5 33.0085V26.7791C26.5 25.7501 25.9028 24.8795 25.1406 24.846Z" fill="black"/>
</svg>
