<svg width="80" height="80" viewBox="0 0 80 80" fill="none" xmlns="http://www.w3.org/2000/svg">
<rect x="27.0769" y="23.3846" width="29.5385" height="33.2308" fill="white"/>
<path d="M31.6667 31.0834V48.9167C31.6667 50.1945 32.2501 51.1667 33.4167 51.8334C34.5834 52.5 35.7223 52.4445 36.8334 51.6667L50.6667 42.8334C51.7223 42.1667 52.2501 41.2222 52.2501 40C52.2501 38.7778 51.7223 37.8334 50.6667 37.1667L36.8334 28.3334C35.7223 27.5556 34.5834 27.5 33.4167 28.1667C32.2501 28.8334 31.6667 29.8056 31.6667 31.0834ZM40.0001 73.3334C35.389 73.3334 31.0556 72.4578 27.0001 70.7067C22.9445 68.9578 19.4167 66.5834 16.4167 63.5834C13.4167 60.5834 11.0423 57.0556 9.29342 53C7.5423 48.9445 6.66675 44.6111 6.66675 40C6.66675 35.3889 7.5423 31.0556 9.29342 27C11.0423 22.9445 13.4167 19.4167 16.4167 16.4167C19.4167 13.4167 22.9445 11.0411 27.0001 9.29002C31.0556 7.54113 35.389 6.66669 40.0001 6.66669C44.6112 6.66669 48.9445 7.54113 53.0001 9.29002C57.0556 11.0411 60.5834 13.4167 63.5834 16.4167C66.5834 19.4167 68.9579 22.9445 70.7067 27C72.4579 31.0556 73.3334 35.3889 73.3334 40C73.3334 44.6111 72.4579 48.9445 70.7067 53C68.9579 57.0556 66.5834 60.5834 63.5834 63.5834C60.5834 66.5834 57.0556 68.9578 53.0001 70.7067C48.9445 72.4578 44.6112 73.3334 40.0001 73.3334Z" fill="#FF1515"/>
</svg>
